<?xml version="1.0" encoding="utf-8"?>
<!-- Generator: Adobe Illustrator 21.1.0, SVG Export Plug-In . SVG Version: 6.00 Build 0)  -->
<svg version="1.1" id="Calque_1" xmlns="http://www.w3.org/2000/svg" xmlns:xlink="http://www.w3.org/1999/xlink" x="0px" y="0px"
	 viewBox="0 0 64.7 80.7" style="enable-background:new 0 0 64.7 80.7;" xml:space="preserve">
<style type="text/css">
	.st0{fill:#4F84D3;}
	.st1{fill:#82B2FF;}
</style>
<path class="st0" d="M39,21.4c0,0,24.6-14.3,23.4-16.6C61.2,2.6,39.8,11.1,36.6,18C33.4,25,39,21.4,39,21.4z"/>
<path class="st0" d="M30.4,23.2c0,0,18.9-21.3,17-23.1C45.6-1.7,28,13.2,27.1,20.7S30.4,23.2,30.4,23.2z"/>
<path class="st0" d="M24.8,24.9c0,0,9.5-22.9,7.1-23.9C29.6,0,19,16.4,20.8,23.8C22.7,31.2,24.8,24.9,24.8,24.9z"/>
<path class="st0" d="M17.6,29.8c0,0,6.1-24,3.6-24.6s-10.6,17-7.7,24.1C16.4,36.3,17.6,29.8,17.6,29.8z"/>
<path class="st0" d="M10.4,36.2c0,0,4.4-24.4,1.9-24.8S2.9,29.1,6.3,36C9.6,42.8,10.4,36.2,10.4,36.2z"/>
<path class="st1" d="M9.3,70.4C3.5,64.4,0,56.1,0,46.6c0-9.2,3.5-17.2,9.3-23.7c6.1-6.4,13.9-10.3,23.3-10.3c8.9,0,17,3.9,22.6,10.3
	c6.1,6.5,9.5,14.5,9.5,23.7c0,9.5-3.4,17.9-9.5,23.8c-5.5,6.4-13.7,10.3-22.6,10.3C23.2,80.7,15.4,76.7,9.3,70.4z M14.7,46.6
	c0,5.8,1.8,10.6,4.9,14.3c3.4,3.2,7.8,5,13,5c4.7,0,9.1-1.8,12.4-5c3.4-3.8,5.3-8.5,5.3-14.3c0-5.5-1.9-10.4-5.3-14.1
	c-3.4-3-7.7-5.1-12.4-5.1c-5.1,0-9.6,2.2-13,5.1C16.5,36.1,14.7,41,14.7,46.6z"/>
</svg>
