<?xml version="1.0" encoding="utf-8"?>
<!-- Generator: Adobe Illustrator 23.0.1, SVG Export Plug-In . SVG Version: 6.00 Build 0)  -->
<svg version="1.1" id="Calque_1" xmlns="http://www.w3.org/2000/svg" xmlns:xlink="http://www.w3.org/1999/xlink" x="0px" y="0px"
	 viewBox="0 0 360 180" style="enable-background:new 0 0 360 180;" xml:space="preserve">
<style type="text/css">
	.st0{fill:#4F84D3;}
	.st1{fill:#33455B;}
	.st2{fill:#82B2FF;}
</style>
<g>
	<path class="st0" d="M285.9,78.3c0,0,24.6-14.3,23.4-16.6c-1.2-2.2-22.6,6.3-25.8,13.2C280.3,81.9,285.9,78.3,285.9,78.3z"/>
	<path class="st0" d="M277.3,80.1c0,0,18.9-21.3,17-23.1c-1.8-1.8-19.4,13.1-20.3,20.6S277.3,80.1,277.3,80.1z"/>
	<path class="st0" d="M271.7,81.8c0,0,9.5-22.9,7.1-23.9c-2.3-1-12.9,15.4-11.1,22.8C269.6,88.1,271.7,81.8,271.7,81.8z"/>
	<path class="st0" d="M264.5,86.7c0,0,6.1-24,3.6-24.6s-10.6,17-7.7,24.1C263.3,93.2,264.5,86.7,264.5,86.7z"/>
	<path class="st0" d="M257.3,93.1c0,0,4.4-24.4,1.9-24.8s-9.4,17.7-6,24.6C256.5,99.7,257.3,93.1,257.3,93.1z"/>
	<path class="st1" d="M55.1,42.4c4.2,0,7.6,3.4,7.6,7.4v79.8c0,4.1-3.4,7.4-7.6,7.4c-4.1,0-7.4-3.4-7.4-7.4V49.9
		C47.6,45.8,51,42.4,55.1,42.4z"/>
	<path class="st1" d="M139.1,103.5V130c0,3.9-3.2,7.2-7.2,7.2c-3.5,0-6.2-2.6-7-5.8c-5.1,3.7-11.2,5.8-18,5.8
		c-9.2,0-17.2-3.8-23-9.9c-5.8-6.2-9.2-14.6-9.2-23.8c0-9.3,3.4-17.7,9.2-23.8c5.8-6.2,13.8-10.1,23-10.1c6.8,0,12.9,2.3,18,6
		c0.8-3.4,3.5-6,7-6c3.9,0,7.2,3.2,7.2,7.3V103.5z M124.8,103.5c0-5.7-2-10.6-5.3-13.9c-3.2-3.7-7.8-5.5-12.6-5.5
		c-4.9,0-9.5,1.9-12.6,5.5c-3.2,3.4-5.1,8.3-5.1,13.9c0,5.5,1.9,10.4,5.1,13.9c3.1,3.4,7.7,5.3,12.6,5.3c4.7,0,9.3-1.9,12.6-5.3
		C122.7,113.9,124.8,109,124.8,103.5z"/>
	<path class="st1" d="M163.4,42.4c4.2,0,7.6,3.4,7.6,7.4v79.8c0,4.1-3.4,7.4-7.6,7.4c-4.1,0-7.4-3.4-7.4-7.4V49.9
		C155.9,45.8,159.3,42.4,163.4,42.4z"/>
	<path class="st1" d="M203,77.1v52.8c0,4.1-3.1,7.3-7.3,7.3c-4.1,0-7.3-3.2-7.3-7.3V77.1c0-4.3,3.2-7.4,7.3-7.4
		C199.9,69.6,203,72.8,203,77.1z"/>
	<path class="st1" d="M227.4,42.4c4.2,0,7.6,3.4,7.6,7.4v79.8c0,4.1-3.4,7.4-7.6,7.4c-4.1,0-7.4-3.4-7.4-7.4V49.9
		C219.9,45.8,223.3,42.4,227.4,42.4z"/>
	<path class="st2" d="M256.2,127.3c-5.8-6-9.3-14.3-9.3-23.8c0-9.2,3.5-17.2,9.3-23.7c6.1-6.4,13.9-10.3,23.3-10.3
		c8.9,0,17,3.9,22.6,10.3c6.1,6.5,9.5,14.5,9.5,23.7c0,9.5-3.4,17.9-9.5,23.8c-5.5,6.4-13.7,10.3-22.6,10.3
		C270.1,137.6,262.3,133.6,256.2,127.3z M261.6,103.5c0,5.8,1.8,10.6,4.9,14.3c3.4,3.2,7.8,5,13,5c4.7,0,9.1-1.8,12.4-5
		c3.4-3.8,5.3-8.5,5.3-14.3c0-5.5-1.9-10.4-5.3-14.1c-3.4-3-7.7-5.1-12.4-5.1c-5.1,0-9.6,2.2-13,5.1
		C263.4,93,261.6,97.9,261.6,103.5z"/>
	<ellipse class="st1" cx="195.5" cy="53" rx="10.6" ry="10.2"/>
</g>
</svg>
